<svg width="0" height="0" class="hidden">
  <symbol fill="none" xmlns="http://www.w3.org/2000/svg" viewBox="0 0 24 25" id="Google">
    <path d="M22.5005 12.7331C22.5005 11.8698 22.4291 11.2398 22.2744 10.5864H12.2148V14.483H18.1196C18.0006 15.4514 17.3577 16.9097 15.9291 17.8897L15.9091 18.0202L19.0897 20.4349L19.3101 20.4564C21.3338 18.6247 22.5005 15.9297 22.5005 12.7331Z" fill="#4285F4"></path>
    <path d="M12.214 23.0001C15.1068 23.0001 17.5353 22.0667 19.3092 20.4567L15.9282 17.89C15.0235 18.5083 13.8092 18.94 12.214 18.94C9.38069 18.94 6.97596 17.1083 6.11874 14.5767L5.99309 14.5871L2.68583 17.0955L2.64258 17.2133C4.40446 20.6433 8.0235 23.0001 12.214 23.0001Z" fill="#34A853"></path>
    <path d="M6.12095 14.5767C5.89476 13.9234 5.76386 13.2233 5.76386 12.5C5.76386 11.7767 5.89476 11.0767 6.10905 10.4234L6.10306 10.2842L2.75435 7.7356L2.64478 7.78667C1.91862 9.21002 1.50195 10.8084 1.50195 12.5C1.50195 14.1917 1.91862 15.79 2.64478 17.2133L6.12095 14.5767Z" fill="#FBBC05"></path>
    <path d="M12.2141 6.05997C14.2259 6.05997 15.583 6.91163 16.3569 7.62335L19.3807 4.73C17.5236 3.03834 15.1069 2 12.2141 2C8.02353 2 4.40447 4.35665 2.64258 7.78662L6.10686 10.4233C6.97598 7.89166 9.38073 6.05997 12.2141 6.05997Z" fill="#EB4335"></path>
  </symbol>
  <symbol fill="none" xmlns="http://www.w3.org/2000/svg" viewBox="0 0 24 25" id="Phone">
    <path d="M15.5 1.5H7.5C6.12 1.5 5 2.62 5 4V21C5 22.38 6.12 23.5 7.5 23.5H15.5C16.88 23.5 18 22.38 18 21V4C18 2.62 16.88 1.5 15.5 1.5ZM11.5 22.5C10.67 22.5 10 21.83 10 21C10 20.17 10.67 19.5 11.5 19.5C12.33 19.5 13 20.17 13 21C13 21.83 12.33 22.5 11.5 22.5ZM16 18.5H7V4.5H16V18.5Z" fill="#333333"></path>
  </symbol>
  <symbol fill="none" xmlns="http://www.w3.org/2000/svg" viewBox="0 0 32 33" id="Apple">
    <path d="M30 16.5C30 24.228 23.735 30.5 16 30.5C8.265 30.5 2 24.228 2 16.5C2 8.765 8.265 2.5 16 2.5C23.735 2.5 30 8.765 30 16.5Z" fill="#333333"></path>
    <path d="M22.5621 12.9574C22.4857 13.002 20.6671 13.9425 20.6671 16.0279C20.7528 18.4061 22.9621 19.2401 23 19.2401C22.9621 19.2847 22.6665 20.3763 21.7907 21.5205C21.0956 22.5062 20.3242 23.5 19.1528 23.5C18.0385 23.5 17.6385 22.8431 16.3528 22.8431C14.972 22.8431 14.5813 23.5 13.5242 23.5C12.3528 23.5 11.5242 22.453 10.7913 21.4766C9.8391 20.1986 9.02978 18.1931 9.00121 16.2675C8.98195 15.2471 9.19189 14.244 9.72481 13.3921C10.477 12.2026 11.8198 11.3952 13.2863 11.3686C14.4099 11.3333 15.4099 12.0875 16.0956 12.0875C16.7528 12.0875 17.9814 11.3686 19.3714 11.3686C19.9714 11.3692 21.5714 11.5376 22.5621 12.9574ZM16.0006 11.1649C15.8006 10.233 16.3528 9.30119 16.8671 8.70677C17.5242 7.98792 18.5621 7.5 19.4571 7.5C19.5143 8.43185 19.1522 9.34575 18.505 10.0114C17.9242 10.7302 16.9242 11.2714 16.0006 11.1649Z" fill="white"></path>
  </symbol>
  <symbol fill="none" xmlns="http://www.w3.org/2000/svg" viewBox="0 0 32 33" id="Facebook">
    <circle cx="16" cy="16.5" r="14" fill="#0C82EE"></circle>
    <path d="M21.2137 20.7816L21.8356 16.8301H17.9452V14.267C17.9452 13.1857 18.4877 12.1311 20.2302 12.1311H22V8.76699C22 8.76699 20.3945 8.5 18.8603 8.5C15.6548 8.5 13.5617 10.3929 13.5617 13.8184V16.8301H10V20.7816H13.5617V30.3345C14.2767 30.444 15.0082 30.5 15.7534 30.5C16.4986 30.5 17.2302 30.444 17.9452 30.3345V20.7816H21.2137Z" fill="white"></path>
  </symbol>
  <symbol fill="none" xmlns="http://www.w3.org/2000/svg" viewBox="0 0 32 32" id="Close">
    <path d="M25.3337 8.54675L23.4537 6.66675L16.0003 14.1201L8.54699 6.66675L6.66699 8.54675L14.1203 16.0001L6.66699 23.4534L8.54699 25.3334L16.0003 17.8801L23.4537 25.3334L25.3337 23.4534L17.8803 16.0001L25.3337 8.54675Z" fill="#666666"></path>
  </symbol>

  <symbol fill="none" xmlns="http://www.w3.org/2000/svg" viewBox="0 0 34 36" id="Play">
    <path d="M0.913254 1.80044C0.521587 2.20019 0.294922 2.82257 0.294922 3.62857V32.3781C0.294922 33.1841 0.521587 33.8064 0.913254 34.2062L1.00992 34.2939L17.5332 18.1902V17.8099L1.00992 1.7062L0.913254 1.80044Z" fill="black"></path>
    <path d="M25.0349 23.5605L19.5332 18.1899V17.8097L25.0415 12.439L25.1649 12.5089L31.6882 16.1278C33.5499 17.1548 33.5499 18.8448 31.6882 19.8783L25.1649 23.4907L25.0349 23.5605Z" fill="black"></path>
    <path d="M24.1647 24.4907L18.5331 18.9998L1.91309 35.206C2.53142 35.8397 3.53975 35.9161 4.68642 35.2823L24.1647 24.4907Z" fill="black"></path>
    <path d="M24.1647 11.5091L4.68642 0.717505C3.53975 0.0902549 2.53142 0.166628 1.91309 0.800378L18.5331 17L24.1647 11.5091Z" fill="black"></path>
  </symbol>


    <symbol fill="none" xmlns="http://www.w3.org/2000/svg" viewBox="0 0 21 20" id="Twit">
    <g opacity="0.8">
      <path d="M7.86796 17.5C5.84609 17.5 3.96136 16.9119 2.375 15.8973C3.72187 15.9844 6.09879 15.7757 7.57724 14.3655C5.35317 14.2634 4.35016 12.5577 4.21934 11.8287C4.40831 11.9016 5.30956 11.9891 5.81834 11.785C3.25994 11.1435 2.86745 8.89833 2.95467 8.21311C3.43437 8.54843 4.24841 8.66506 4.56821 8.6359C2.18425 6.93015 3.04189 4.36422 3.46345 3.81022C5.17426 6.18042 7.73825 7.51161 10.9102 7.58565C10.8504 7.32335 10.8188 7.05026 10.8188 6.76978C10.8188 4.75682 12.4459 3.125 14.4529 3.125C15.5016 3.125 16.4465 3.57047 17.1098 4.28302C17.8106 4.11882 18.8652 3.73442 19.3808 3.402C19.1209 4.33507 18.3118 5.11343 17.8224 5.40192C17.8265 5.41174 17.8185 5.39207 17.8224 5.40192C18.2523 5.3369 19.4155 5.11336 19.875 4.8016C19.6478 5.32578 18.79 6.19733 18.0861 6.68526C18.217 12.4613 13.7978 17.5 7.86796 17.5Z" fill="#666666"></path>
    </g>
  </symbol>
  <symbol fill="none" xmlns="http://www.w3.org/2000/svg" viewBox="0 0 21 20" id="Instagram">
    <g opacity="0.8">
      <rect x="1.75" y="1.25" width="17.5" height="17.5" rx="6" fill="url(#paint0_radial_151_2699)"></rect>
      <rect x="1.75" y="1.25" width="17.5" height="17.5" rx="6" fill="url(#paint1_radial_151_2699)"></rect>
      <rect x="1.75" y="1.25" width="17.5" height="17.5" rx="6" fill="#666666"></rect>
      <path d="M14.875 6.5625C14.875 7.08027 14.4553 7.5 13.9375 7.5C13.4197 7.5 13 7.08027 13 6.5625C13 6.04473 13.4197 5.625 13.9375 5.625C14.4553 5.625 14.875 6.04473 14.875 6.5625Z"></path>
      <path fill-rule="evenodd" clip-rule="evenodd" d="M10.5 13.125C12.2259 13.125 13.625 11.7259 13.625 10C13.625 8.27411 12.2259 6.875 10.5 6.875C8.77411 6.875 7.375 8.27411 7.375 10C7.375 11.7259 8.77411 13.125 10.5 13.125ZM10.5 11.875C11.5355 11.875 12.375 11.0355 12.375 10C12.375 8.96447 11.5355 8.125 10.5 8.125C9.46447 8.125 8.625 8.96447 8.625 10C8.625 11.0355 9.46447 11.875 10.5 11.875Z" fill="white"></path>
      <path fill-rule="evenodd" clip-rule="evenodd" d="M4.25 9.75C4.25 7.6498 4.25 6.5997 4.65873 5.79754C5.01825 5.09193 5.59193 4.51825 6.29754 4.15873C7.0997 3.75 8.1498 3.75 10.25 3.75H10.75C12.8502 3.75 13.9003 3.75 14.7025 4.15873C15.4081 4.51825 15.9817 5.09193 16.3413 5.79754C16.75 6.5997 16.75 7.6498 16.75 9.75V10.25C16.75 12.3502 16.75 13.4003 16.3413 14.2025C15.9817 14.9081 15.4081 15.4817 14.7025 15.8413C13.9003 16.25 12.8502 16.25 10.75 16.25H10.25C8.1498 16.25 7.0997 16.25 6.29754 15.8413C5.59193 15.4817 5.01825 14.9081 4.65873 14.2025C4.25 13.4003 4.25 12.3502 4.25 10.25V9.75ZM10.25 5H10.75C11.8207 5 12.5486 5.00097 13.1112 5.04694C13.6592 5.09171 13.9395 5.17287 14.135 5.27248C14.6054 5.51217 14.9878 5.89462 15.2275 6.36502C15.3271 6.56052 15.4083 6.84078 15.4531 7.3888C15.499 7.95141 15.5 8.67928 15.5 9.75V10.25C15.5 11.3207 15.499 12.0486 15.4531 12.6112C15.4083 13.1592 15.3271 13.4395 15.2275 13.635C14.9878 14.1054 14.6054 14.4878 14.135 14.7275C13.9395 14.8271 13.6592 14.9083 13.1112 14.9531C12.5486 14.999 11.8207 15 10.75 15H10.25C9.17928 15 8.45141 14.999 7.8888 14.9531C7.34078 14.9083 7.06052 14.8271 6.86502 14.7275C6.39462 14.4878 6.01217 14.1054 5.77248 13.635C5.67287 13.4395 5.59171 13.1592 5.54694 12.6112C5.50097 12.0486 5.5 11.3207 5.5 10.25V9.75C5.5 8.67928 5.50097 7.95141 5.54694 7.3888C5.59171 6.84078 5.67287 6.56052 5.77248 6.36502C6.01217 5.89462 6.39462 5.51217 6.86502 5.27248C7.06052 5.17287 7.34078 5.09171 7.8888 5.04694C8.45141 5.00097 9.17928 5 10.25 5Z" fill="white"></path>
    </g>
    <defs>
      <radialGradient id="paint0_radial_151_2699" cx="0" cy="0" r="1" gradientUnits="userSpaceOnUse" gradientTransform="translate(8 14.375) rotate(-55.3758) scale(15.9498)">
        <stop stop-color="#B13589"></stop>
        <stop offset="0.79309" stop-color="#C62F94"></stop>
        <stop offset="1" stop-color="#8A3AC8"></stop>
      </radialGradient>
      <radialGradient id="paint1_radial_151_2699" cx="0" cy="0" r="1" gradientUnits="userSpaceOnUse" gradientTransform="translate(7.375 19.375) rotate(-65.1363) scale(14.1214)">
        <stop stop-color="#E0E8B7"></stop>
        <stop offset="0.444662" stop-color="#FB8A2E"></stop>
        <stop offset="0.71474" stop-color="#E2425C"></stop>
        <stop offset="1" stop-color="#E2425C" stop-opacity="0"></stop>
      </radialGradient>
    </defs>
  </symbol>
  <symbol xmlns="http://www.w3.org/2000/svg" viewBox="0 0 25 24" id="Face">
    <g opacity="0.8">
      <circle cx="12.5" cy="12" r="10.5" fill="white"></circle>
      <path d="M16.4103 15.2112L16.8767 12.2476H13.9589V10.3252C13.9589 9.51428 14.3657 8.7233 15.6726 8.7233H17V6.20024C17 6.20024 15.7959 6 14.6452 6C12.2411 6 10.6712 7.4197 10.6712 9.98883V12.2476H8V15.2112H10.6712V22.3759C11.2075 22.458 11.7562 22.5 12.3151 22.5C12.874 22.5 13.4226 22.458 13.9589 22.3759V15.2112H16.4103Z" fill="#666666"></path>
    </g>
  </symbol>
  <symbol xmlns="http://www.w3.org/2000/svg" viewBox="0 0 28 31" id="menu">
    <path d="M3.5 15.5H24.5" stroke="#173A56" stroke-width="3" stroke-linecap="round" stroke-linejoin="round"></path>
    <path d="M3.5 7.75H24.5" stroke="#173A56" stroke-width="3" stroke-linecap="round" stroke-linejoin="round"></path>
    <path d="M3.5 23.25H24.5" stroke="#173A56" stroke-width="3" stroke-linecap="round" stroke-linejoin="round"></path>
  </symbol>
  <symbol fill="none" xmlns="http://www.w3.org/2000/svg" viewBox="0 0 48 47" id="robot">
    <g clip-path="url(#clip0_223_541)">
      <path d="M39.6189 16.1177L39.6025 15.4249V2.32377L36.0226 5.94582C33.0929 2.31751 28.6357 0 23.6433 0C18.4477 0 13.832 2.50891 10.9126 6.39274L16.7804 12.3917C17.3573 11.3172 18.1741 10.3953 19.1592 9.69344C20.1837 8.88458 21.6352 8.2233 23.6431 8.2233C23.8857 8.2233 24.0729 8.25176 24.2105 8.30601C26.6982 8.50462 28.8549 9.89376 30.1242 11.9098L25.9689 16.1139L39.6166 16.1165" fill="#1C3AA9"></path>
      <path d="M23.55 0.000610352L22.865 0.0190108H9.9159L13.4958 3.64087C9.90934 6.60145 7.61865 11.1124 7.61865 16.1634C7.61865 21.418 10.0985 26.0895 13.9374 29.0415L19.8669 23.105C18.8055 22.5237 17.8925 21.7004 17.2001 20.7002C16.4008 19.6637 15.747 18.1953 15.747 16.1638C15.747 15.9184 15.7751 15.729 15.8287 15.5898C16.025 13.0729 17.3981 10.891 19.3908 9.6068L23.5443 13.8089L23.547 0.00136913" fill="#4285F4"></path>
      <path d="M7.61914 16.163L7.63545 16.8557V29.9565L11.2154 26.3346C14.1453 29.9629 18.6025 32.2804 23.5949 32.2804C28.7886 32.2804 33.406 29.7715 36.3239 25.8877L30.4561 19.8888C29.8815 20.9626 29.0677 21.8863 28.0791 22.5868C27.0546 23.3957 25.6032 24.057 23.5953 24.057C23.3526 24.057 23.1655 24.0285 23.0279 23.9742C20.5401 23.7756 18.3835 22.3865 17.1141 20.3704L21.2676 16.1683C16.0064 16.1872 10.0634 16.2015 7.61989 16.1656" fill="#ABABAB"></path>
      <path d="M10.3149 38.54C9.92587 38.54 9.57694 38.6147 9.26831 38.7638C8.96201 38.9079 8.69318 39.1223 8.48325 39.39C8.27194 39.6613 8.10919 39.9908 7.99519 40.3776C7.88269 40.7612 7.82906 41.1904 7.82906 41.6675V43.0371C7.82906 43.5157 7.88437 43.9467 7.99519 44.3303C8.10919 44.7138 8.27025 45.0413 8.47819 45.3129C8.68612 45.5845 8.93756 45.7932 9.23306 45.9389C9.52856 46.0846 9.86044 46.1578 10.2294 46.1578C10.6086 46.1578 10.9406 46.1018 11.2258 45.9897C11.5146 45.8759 11.7559 45.7166 11.9505 45.506C12.1451 45.2922 12.2944 45.0342 12.4005 44.732C12.5079 44.4301 12.5715 44.0871 12.5917 43.7039H11.6588C11.6353 43.9993 11.595 44.254 11.538 44.4627C11.481 44.6713 11.3974 44.8411 11.2864 44.9749C11.1789 45.1073 11.0381 45.2057 10.8637 45.2702C10.6927 45.3313 10.4812 45.3618 10.23 45.3618C9.96187 45.3618 9.7335 45.3025 9.54562 45.1835C9.35775 45.0614 9.20512 44.8952 9.08775 44.6846C8.97375 44.476 8.88975 44.2282 8.83612 43.9448C8.78588 43.6631 8.76056 43.3594 8.76056 43.0335V41.6539C8.76056 41.3042 8.79056 40.9869 8.85113 40.7016C8.91488 40.4165 9.0105 40.1739 9.138 39.9735C9.2655 39.7732 9.42675 39.6188 9.621 39.5103C9.81563 39.3965 10.047 39.3422 10.3155 39.3422C10.5405 39.3422 10.7331 39.3764 10.8941 39.4441C11.0554 39.5086 11.1892 39.6105 11.2967 39.7476C11.4041 39.8834 11.4842 40.0564 11.5433 40.2668C11.6023 40.4772 11.637 40.7283 11.6589 41.0203H12.5899C12.5711 40.6219 12.5111 40.2653 12.4037 39.958C12.2963 39.6507 12.1468 39.3895 11.9537 39.1791C11.7606 38.9687 11.5294 38.8092 11.2543 38.7005C10.9824 38.5918 10.6689 38.5374 10.3131 38.5374L10.3149 38.54ZM33.0399 38.54C32.6509 38.54 32.3019 38.6147 31.9933 38.7638C31.687 38.9079 31.4182 39.1223 31.2083 39.39C30.9969 39.6613 30.8342 39.9908 30.7202 40.3776C30.6077 40.7612 30.5541 41.1904 30.5541 41.6675V43.0371C30.5541 43.5157 30.6094 43.9467 30.7202 44.3303C30.8342 44.7138 30.9953 45.0413 31.2032 45.3129C31.4111 45.5845 31.6626 45.7932 31.9581 45.9389C32.2536 46.0846 32.5854 46.1578 32.9544 46.1578C33.3336 46.1578 33.6656 46.1018 33.9508 45.9897C34.2396 45.8759 34.4809 45.7166 34.6755 45.506C34.8701 45.2922 35.0194 45.0342 35.1255 44.732C35.2329 44.4301 35.2965 44.0871 35.3167 43.7039H34.3858C34.3624 43.9993 34.3221 44.254 34.2651 44.4627C34.2081 44.6713 34.1244 44.8411 34.0134 44.9749C33.906 45.1073 33.7652 45.2057 33.5908 45.2702C33.4198 45.3313 33.2083 45.3618 32.9571 45.3618C32.6889 45.3618 32.4606 45.3025 32.2727 45.1835C32.0848 45.0614 31.9322 44.8952 31.8148 44.6846C31.7008 44.476 31.6168 44.2282 31.5632 43.9448C31.5129 43.6631 31.4876 43.3594 31.4876 43.0335V41.6539C31.4876 41.3042 31.5176 40.9869 31.5782 40.7016C31.6419 40.4165 31.7376 40.1739 31.8651 39.9735C31.9926 39.7732 32.1538 39.6188 32.3481 39.5103C32.5427 39.3965 32.7741 39.3422 33.0426 39.3422C33.2676 39.3422 33.4601 39.3764 33.6212 39.4441C33.7824 39.5086 33.9163 39.6105 34.0238 39.7476C34.1312 39.8834 34.2113 40.0564 34.2703 40.2668C34.3294 40.4772 34.3641 40.7283 34.386 41.0203H35.3169C35.2982 40.6219 35.2382 40.2653 35.1307 39.958C35.0233 39.6507 34.8739 39.3895 34.6808 39.1791C34.4876 38.9687 34.2564 38.8092 33.9814 38.7005C33.7095 38.5918 33.396 38.5374 33.0401 38.5374L33.0399 38.54ZM15.6212 38.6419L13.2591 46.0542H14.205L14.7737 44.1197H17.2494L17.8281 46.0542H18.774L16.4089 38.6419H15.6212ZM19.7724 38.6419V46.0542H20.6912V43.1525H22.1049C22.4574 43.1525 22.7693 43.1031 23.0409 43.0049C23.3128 42.903 23.5408 42.7571 23.7253 42.5671C23.9132 42.377 24.054 42.1429 24.1479 41.8644C24.2454 41.5827 24.2938 41.2637 24.2938 40.9074C24.2938 40.5781 24.2451 40.2761 24.1479 40.0012C24.0542 39.7229 23.9149 39.4837 23.7304 39.2834C23.5459 39.0799 23.3179 38.9221 23.0409 38.8099C22.7691 38.6961 22.4572 38.6419 22.1049 38.6419H19.7724ZM25.0007 38.6419V39.4462H26.9229V46.0542H27.8417V39.4462H29.7692V38.6419H25.0007ZM36.5593 38.6419V46.0542H37.4781V42.6279H40.425V46.0542H41.3509V38.6419H40.425V41.8288H37.4762V38.6419H36.5593ZM44.8468 38.6419L42.4867 46.0542H43.4327L44.0014 44.1197H46.4771L47.0558 46.0542H48L45.6349 38.6419H44.8468ZM20.6931 39.4462H22.1068C22.3318 39.4462 22.5227 39.487 22.6806 39.5683C22.8349 39.6443 22.9693 39.7559 23.073 39.8942C23.1771 40.0301 23.2524 40.1879 23.2995 40.3677C23.3498 40.5441 23.3751 40.7276 23.3751 40.9178C23.3751 41.1265 23.3499 41.3219 23.2995 41.4983C23.2526 41.6713 23.1771 41.8208 23.073 41.9536C22.9723 42.0792 22.8414 42.1774 22.6806 42.2489C22.5231 42.3203 22.3318 42.3559 22.1068 42.3559H20.6931V39.4462ZM16.0134 39.9451L17.0147 43.3152H15.015L16.0134 39.9451ZM45.2391 39.9451L46.2403 43.3152H44.2406L45.2391 39.9451ZM1.89375 40.444C1.66219 40.444 1.4625 40.5034 1.29488 40.6223C1.13044 40.741 0.994875 40.9023 0.882375 41.106L0.867375 40.546H0V46.0544H0.890625V42.1139C0.974437 41.8796 1.0935 41.6965 1.24781 41.559C1.40531 41.4232 1.605 41.3555 1.84669 41.3555L2.05294 41.3657C2.11885 41.3699 2.18443 41.3784 2.24925 41.3911L2.24419 40.5155C2.23069 40.5087 2.20894 40.5018 2.17856 40.4952C2.14911 40.4843 2.11882 40.4758 2.088 40.4698C2.05425 40.463 2.01919 40.4578 1.98225 40.4546C1.9485 40.4478 1.9185 40.4444 1.89169 40.4444L1.89375 40.444ZM4.88775 40.444C4.63159 40.4436 4.37749 40.4902 4.13775 40.5815C3.894 40.6731 3.68156 40.8243 3.49369 41.0368C3.30919 41.2454 3.15994 41.5154 3.04369 41.8513C2.92969 42.1839 2.87269 42.5911 2.87269 43.0783V43.6993C2.87269 44.1201 2.92144 44.4851 3.01856 44.7939C3.11569 45.1027 3.25481 45.3592 3.43613 45.5627C3.62063 45.763 3.84375 45.9123 4.1055 46.0108C4.36725 46.1092 4.6605 46.1584 4.98619 46.1584C5.22094 46.1584 5.43056 46.1347 5.61525 46.087C5.80312 46.0396 5.96925 45.9783 6.11344 45.9038C6.25781 45.8256 6.38156 45.7374 6.48581 45.639C6.59006 45.5405 6.67894 45.4387 6.75244 45.3355L6.28931 44.7652C6.21544 44.8569 6.13669 44.9417 6.05306 45.0198C5.96925 45.0946 5.87681 45.1608 5.77631 45.2184C5.67091 45.2736 5.55954 45.3163 5.44444 45.3455C5.32387 45.3778 5.18756 45.3914 5.03681 45.3914C4.62431 45.3914 4.30556 45.2573 4.08581 44.9893C3.86775 44.7212 3.75881 44.2918 3.75881 43.6993V43.5722H6.79631V43.0479C6.79631 42.6272 6.76106 42.2554 6.69056 41.9329C6.62006 41.6104 6.50775 41.3392 6.35344 41.1183C6.2033 40.9012 5.9982 40.7289 5.75962 40.6195C5.51813 40.5041 5.22619 40.4464 4.884 40.4464L4.88775 40.444ZM4.88775 41.2179C5.08238 41.2179 5.24344 41.2536 5.37075 41.3249C5.49687 41.3949 5.60137 41.4988 5.67263 41.6252C5.74988 41.7542 5.80519 41.9086 5.83875 42.0885C5.87569 42.2649 5.89913 42.4603 5.90925 42.6739V42.796H3.76388C3.77737 42.4872 3.81413 42.2307 3.87637 42.0272C3.93862 41.8236 4.01569 41.6624 4.11263 41.5435C4.21331 41.4213 4.329 41.3348 4.45988 41.2889C4.59075 41.243 4.73325 41.2176 4.88737 41.2176L4.88775 41.2179Z" fill="#A6A6A6"></path>
    </g>
    <defs>
      <clipPath id="clip0_223_541">
        <rect width="48" height="46.2857" fill="white"></rect>
      </clipPath>
    </defs>
  </symbol>
</svg>